<svg xmlns="http://www.w3.org/2000/svg" shape-rendering="crispEdges" version="1.1" viewBox="0 0 133.37788 117.27763"><path fill="#38bdf8" d="M6.347043 59.29306h4v4h-4z" opacity=".6"/><path fill="#818cf8" d="M104.26478 64.511566h6v6h-6z" opacity=".8"/><path fill="#818cf8" d="M28.159384 18h3.377892v3.377892h-3.377892z" opacity=".8" style="stroke-width:.562982"/><path fill="#38bdf8" d="M96.912605 113.27763h4v4h-4z" opacity=".5"/><path fill="#c084fc" d="M21.128538 94.948593h6v6h-6z" opacity=".7"/><path fill="#f43f5e" d="M63.159382 0h4v4h-4z" opacity=".6"/><path fill="#c084fc" d="M55 12.930591h12v6H55z"/><path fill="#a855f7" d="M58 18.930591h6v8h-6z"/><path fill="#ffffff" d="M41 48.930591h14v16H41zm26 0h14v16H67z"/><path fill="#0f172a" d="M49 54.930591h6v8h-6zm13.984577.154243h6v8h-6z"/><path fill="#0f172a" d="M39.526993 56h12v4.6015425h-12z" style="stroke-width:.678347" transform="translate(11 12.930591)"/><path fill="#38bdf8" d="M0 22.930591h8v4H0zm6 4h4v6H6zm-4 6h4v4H2zm0 8h4v4H2z"/><path fill="#c084fc" d="M105 17.930591h8v4h-8zm6 4h4v6h-4zm-4 6h4v4h-4zm0 8h4v4h-4z"/><path fill="#c084fc" d="M129.84575 39.925453h3.5321336v3.5321336H129.84575z" opacity=".7" style="stroke-width:.588689"/><path fill="#38bdf8" d="M80.159386 33h6.0051413v6.0051413H80.159386z" opacity=".6" style="stroke-width:1.50129"/></svg>