<svg xmlns="http://www.w3.org/2000/svg" data-name="Layer 1" version="1.1" viewBox="0 0 1600 1600"><path d="M-137.10368-60.325623h1834.4473v1798.8003h-1834.4473z" style="fill:#2083c5;fill-opacity:1"/><path fill="#f9b230" d="M626.79 353s247.46 31.94 500.29 73.4c149 24.5 187.49 79.89 219.58 164.75C1353.41 609 1383.94 607 1414 578c37.24-35.94 70.37-72.41 99.38-91.3 83.6-54.33 156.3-37.65 236.23-42.65 15.38-.93 23.57-2.19 23.57-.37 0 2.48-7.49 4.7-23.57 11.19-41 16.6-98.12 44-127.25 77.44-49.5 57.1-70.51 205.51-278.91 345.76C1164.61 998.43 1058.08 998.8 933 1047.68c-173.87 68-267.73 163.86-267.73 163.86s57.59-151 153.89-237.23c101.57-90.82 182.8-141.88 197.25-225 23.75-137-389.64-396.3-389.64-396.3" style="display:inline" transform="translate(-399.975)"/><path fill="#ffffff" d="m905 1210.28-38.94-20.34-55.66 20.3 30.64-34.53-35.5-22 56.88-1 32.91-33.91 5 34 56 1-53.58 22zm217.55 36.72-40.61-20.3-54.88 20.3 28.72-34.53-37.24-22 57.36-1 31.09-33.9 7.23 33.9 56.65 1-52.76 22zm241.62-37.77-41.35-20.23-53.25 20.27 26.57-34.46-38.1-22 56.74-1 28.9-33.83 9 33.83 56.14 1.08-51 21.9zm192.64-101.61-41-20.31-51.14 20.23 24.61-34.46-37.84-21.94 55.22-1 26.94-33.79 10 33.83 54.7 1.11-48.84 21.86zm90-136.56-39.61-20.34-49.2 20.22 23.5-34.42-36.58-22 53.18-.92 25.71-33.8 9.82 33.83 52.7 1.15-46.92 21.83zm-29.39-137.83-37.57-20.39-47.85 20.23 23.57-34.42-34.61-22 51.13-.89 25.61-33.8 8.6 33.87 50.61 1.19-45.65 21.79z" style="display:inline" transform="translate(-399.975)"/></svg>