<svg xmlns="http://www.w3.org/2000/svg" viewBox="0 0 100 100" width="100" height="100">
  <path d="M 86.8 51.4 C 86.8 48.8 86.6 46.4 86.1 44.1 L 50 44.1 L 50 58.6 L 70.7 58.6 C 69.8 63.4 67.0 67.5 62.8 70.3 L 62.8 80.1 L 75.5 80.1 C 82.9 73.3 86.8 63.2 86.8 51.4 Z" fill="#4285F4"/>
  <path d="M 50 88.7 C 60.5 88.7 69.3 85.3 75.5 80.1 L 62.8 70.3 C 59.3 72.6 54.9 74.0 50 74.0 C 39.8 74.0 31.1 67.1 28.0 57.8 L 14.8 57.8 L 14.8 68.0 C 21.3 80.9 34.6 88.7 50 88.7 Z" fill="#34A853"/>
  <path d="M 28.0 57.8 C 27.2 55.4 26.8 52.8 26.8 50.0 C 26.8 47.2 27.2 44.6 28.0 42.2 L 28.0 32.0 L 14.8 32.0 C 12.1 37.4 10.6 43.5 10.6 50.0 C 10.6 56.5 12.1 62.6 14.8 68.0 L 28.0 57.8 Z" fill="#FBBC05"/>
  <path d="M 50 26.0 C 55.7 26.0 60.8 28.0 64.9 31.8 L 75.8 20.9 C 69.2 14.8 60.4 11.3 50 11.3 C 34.6 11.3 21.3 19.1 14.8 32.0 L 28.0 42.2 C 31.1 32.9 39.8 26.0 50 26.0 Z" fill="#EA4335"/>
</svg>