<?xml version="1.0" encoding="UTF-8" standalone="no"?>
<svg
   xmlns:dc="http://purl.org/dc/elements/1.1/"
   xmlns:cc="http://creativecommons.org/ns#"
   xmlns:rdf="http://www.w3.org/1999/02/22-rdf-syntax-ns#"
   xmlns:svg="http://www.w3.org/2000/svg"
   xmlns="http://www.w3.org/2000/svg"
   xmlns:sodipodi="http://sodipodi.sourceforge.net/DTD/sodipodi-0.dtd"
   xmlns:inkscape="http://www.inkscape.org/namespaces/inkscape"
   viewBox="0 0 600 599.99999"
   version="1.1"
   id="svg38"
   sodipodi:docname="logo-m-green.svg"
   inkscape:version="0.92.4 5da689c313, 2019-01-14"
   width="600"
   height="600">
  <metadata
     id="metadata42">
    <rdf:RDF>
      <cc:Work
         rdf:about="">
        <dc:format>image/svg+xml</dc:format>
        <dc:type
           rdf:resource="http://purl.org/dc/dcmitype/StillImage" />
        <dc:title>Risorsa 1</dc:title>
      </cc:Work>
    </rdf:RDF>
  </metadata>
  <sodipodi:namedview
     pagecolor="#ffffff"
     bordercolor="#666666"
     borderopacity="1"
     objecttolerance="10"
     gridtolerance="10"
     guidetolerance="10"
     inkscape:pageopacity="0"
     inkscape:pageshadow="2"
     inkscape:window-width="1920"
     inkscape:window-height="1016"
     id="namedview40"
     showgrid="false"
     inkscape:zoom="1.3139397"
     inkscape:cx="221.20325"
     inkscape:cy="128.33534"
     inkscape:window-x="0"
     inkscape:window-y="27"
     inkscape:window-maximized="1"
     inkscape:current-layer="Livello_2"
     fit-margin-top="0"
     fit-margin-left="0"
     fit-margin-right="0"
     fit-margin-bottom="0" />
  <defs
     id="defs4">
    <style
       id="style2">.cls-1{fill:#00755c;}</style>
  </defs>
  <title
     id="title6">Risorsa 1</title>
  <g
     id="Livello_2"
     data-name="Livello 2"
     transform="translate(1.1516993e-6,1.1516993e-6)">
    <g
       id="Logo">
      <g
         id="Picture">
        <path
           style="fill:#00755c"
           d="M 42.089844,0 A 42.08,42.08 0 0 0 0,42.089844 V 557.91016 A 42.08,42.08 0 0 0 42.089844,600 H 183.86914 a 42.08,42.08 0 0 0 42.07031,-42.08984 V 378.65039 c 0,0 17.92961,40.26 48.34961,53 5.9,2.48 14.57094,2.91992 25.71094,2.91992 11.14,0 19.81094,-0.43992 25.71094,-2.91992 30.42,-12.74 48.34961,-53 48.34961,-53 V 557.91016 A 42.08,42.08 0 0 0 416.13086,600 h 141.7793 A 42.08,42.08 0 0 0 600,557.91016 V 42.089844 A 42.08,42.08 0 0 0 557.91016,0 H 384.18945 c -22.93,0 -42.58922,12.300156 -38.69922,39.910156 2.63,18.56 7.19891,40.789766 11.62891,49.509766 10,19.729998 32.4707,47.209458 32.4707,72.939458 0,11.31 -2.79062,23.44078 -6.89062,35.55078 -11.32,33.41 -25.58008,66.26945 -32.58008,81.43945 -8.47,18.38 -20,45.34961 -37.25,45.34961 H 304.5 c 0,0 3.18031,36.85133 7.57031,38.11133 -4.07,0.33 -12.07031,-19.90039 -12.07031,-19.90039 0,0 -8.00031,20.23039 -12.07031,19.90039 4.39,-1.26 7.57031,-38.11133 7.57031,-38.11133 h -8.36914 c -17.25,0 -28.78,-26.96961 -37.25,-45.34961 -7,-15.17 -21.26008,-48.02945 -32.58008,-81.43945 -4.1,-12.11 -6.89062,-24.24078 -6.89062,-35.55078 0,-25.73 22.4707,-53.20946 32.4707,-72.939458 4.43,-8.72 8.99891,-30.949766 11.62891,-49.509766 C 258.39977,12.300156 238.74055,0 215.81055,0 Z"
           id="path27"
           inkscape:connector-curvature="0" />
        <path
           class="cls-1"
           d="m 358.88,175.56 2.94,22.91 a 11.56,11.56 0 0 1 -2.16,8.34 l -17.77,24.24 a 3.51,3.51 0 0 1 -6.33,-2.37 l 3.44,-40.1 a 13.49,13.49 0 0 1 6.2,-10.24 l 8.32,-5.29 a 3.5,3.5 0 0 1 5.36,2.51 z"
           id="path31"
           inkscape:connector-curvature="0"
           style="fill:#00755c" />
        <path
           class="cls-1"
           d="m 241.12,175.56 -2.94,22.91 a 11.56,11.56 0 0 0 2.16,8.34 l 17.77,24.24 a 3.51,3.51 0 0 0 6.33,-2.37 L 261,188.58 a 13.49,13.49 0 0 0 -6.2,-10.24 l -8.32,-5.29 a 3.5,3.5 0 0 0 -5.36,2.51 z"
           id="path33"
           inkscape:connector-curvature="0"
           style="fill:#00755c" />
      </g>
    </g>
  </g>
</svg>
