<?xml version="1.0" encoding="UTF-8" standalone="no"?>
<!-- Created with Inkscape (http://www.inkscape.org/) -->

<svg
   width="153.82346mm"
   height="75.255432mm"
   viewBox="0 0 153.82345 75.255434"
   version="1.1"
   id="svg5"
   xml:space="preserve"
   xmlns="http://www.w3.org/2000/svg"
   xmlns:svg="http://www.w3.org/2000/svg"><defs
     id="defs2"><style
       id="style803">
      .cls-1 {
        fill: #000000;
        stroke-width: 0px;
      }
    </style><style
       id="style920">
      .cls-1 {
        fill: #000000;
        stroke-width: 0px;
      }
    </style></defs><g
     id="layer1"
     transform="translate(-275.31816,-60.186107)"><g
       style="clip-rule:evenodd;fill:#000000;fill-opacity:1;fill-rule:evenodd;stroke-linejoin:round;stroke-miterlimit:2"
       id="g801"
       transform="matrix(0.26458333,0,0,0.26458333,275.31815,60.186107)"><path
         d="m 134.17,264.86 221.79,-63.25 52.81,35.35 -33.87,-6.98 -11.6,-6.42 z"
         style="fill:#000000;fill-opacity:1;fill-rule:nonzero"
         id="path780" /><path
         d="m 319.86,199.51 24.09,-6.03 -23.76,-15.95 -74.79,-19.25 z"
         style="fill:#000000;fill-opacity:1;fill-rule:nonzero"
         id="path782" /><path
         d="M 0,0 377.36,97.15 281.83,98.67 496.67,284.43 322.78,167.78 187.77,133.02 157.99,111.92 201.55,108.24 135.08,95.69 102.06,72.3 154.32,70.81 72.81,51.58 Z"
         style="fill:#000000;fill-opacity:1;fill-rule:nonzero"
         id="path784" /><path
         d="m 360.47,152.54 90.3,23.25 -10.77,-22.61 64.07,34.2 44.22,46.8 -20.47,18.1 -1.61,-10.11 -22.14,-10.83 -49.51,2.55 z"
         style="fill:#000000;fill-opacity:1;fill-rule:nonzero"
         id="path786" /><path
         d="m 581.38,149.67 -111.58,9.17 -47.72,-23.99 11.55,26.69 -89.45,-23.03 -11.65,-10.13 25.67,6.23 67.59,-15.88 -34.94,-18.11 z"
         style="fill:#000000;fill-opacity:1;fill-rule:nonzero"
         id="path788" /></g></g></svg>
