<svg xmlns="http://www.w3.org/2000/svg" xml:space="preserve" fill-rule="evenodd" stroke-linejoin="round" stroke-width="28.2" preserveAspectRatio="xMidYMid" version="1.2" viewBox="6096 9750 8806 8806"><defs class="ClipPathGroup"><clipPath id="a" clipPathUnits="userSpaceOnUse"><path d="M6096 9750h8806v8806H6096z"/></clipPath></defs><g class="SlideGroup"><g class="Slide" clip-path="url(#a)"><g class="Page"><g class="com.sun.star.drawing.ClosedBezierShape"><path fill="none" d="M10809 10055h712v716h-712z" class="BoundingBox"/><path fill="#231f20" d="M11516 10142c22 67-58 110-99 139-74-45-148-142-241-80-31 12-10 45-16 68 83 84 237 99 261 218 23 110-16 210-113 259-192 103-298-180-499-58 20-70 77-126 116-190 128 18 163 167 311 130 36-39 100-87 49-138-102-82-309-87-298-268-30-72 44-103 66-155 164-52 299 76 463 75"/></g><g class="com.sun.star.drawing.ClosedBezierShape"><path fill="none" d="M9513 10089h620v696h-620z" class="BoundingBox"/><path fill="#231f20" d="M9704 10114c97-33 228 60 324-24 30 74-45 109-47 172-88-34-202-109-291-28-28 64 49 91 87 100 135 3 290 31 346 164 35 103-41 178-115 224-139 98-286-113-392 62h-34c-16-85 20-150 29-224 111 18 239 155 343 27 8-50 5-61-19-102-129-97-399 14-416-213-24-71 26-129 82-156 39 9 82-22 103-2"/></g><g class="com.sun.star.drawing.ClosedBezierShape"><path fill="none" d="M10329 10129h338v385h-338z" class="BoundingBox"/><path fill="#231f20" d="M10666 10382c-101-1-85 163-203 125-5-100-225-154-90-221l133-157c72 62 147 152 160 253"/></g><g class="com.sun.star.drawing.ClosedBezierShape"><path fill="none" d="M11617 10206h748v786h-748z" class="BoundingBox"/><path fill="#231f20" d="M12291 10449c39 34 104 62 55 119l-85 88c-68-31-84-162-190-134-85 142-202 291-144 466-123 20-197-89-310-95 3-87 141-38 151-140 47-114 148-229 129-346-66-73-162-68-257-63-23-63 39-93 65-138 213 35 385 176 586 243"/></g><g class="com.sun.star.drawing.ClosedBezierShape"><path fill="none" d="M7994 10579h710v763h-710z" class="BoundingBox"/><path fill="#231f20" d="m8588 10669 1 51c-84-21-149 35-185 90 45 141 141 306 298 352l1 35c-90 47-165 131-271 143 61-179-78-312-180-442-143-47-154 277-257 41l-1-52 456-301c81-26 101 32 138 83"/></g><g class="com.sun.star.drawing.ClosedBezierShape"><path fill="none" d="M8819 10354h630v740h-630z" class="BoundingBox"/><path fill="#231f20" d="M9447 10855c-64-62-184-137-227-217-104-103-219-290-366-283-22 172-18 377 12 547-9 66-43 122-47 190q122-11 221-74c12-49-48-67-71-100 0-37-6-75 15-103 62-6 93-82 171-56 61 40 79 99 71 170 74-26 160-22 221-74m-432-196-17 19c-36-21-40-57-19-87 12 8 49 35 36 68"/></g><g class="com.sun.star.drawing.ClosedBezierShape"><path fill="none" d="M12254 10548h769v787h-769z" class="BoundingBox"/><path fill="#231f20" d="M12673 10698a438 438 0 0 0-265 416c27 68 98 99 174 81 103-116 205-234 231-381l34-35c58 62 177 82 174 185-231 35-217 372-471 369-118-15-248-78-295-198 12-216 154-380 192-587 88 16 169 91 226 150"/></g><g class="com.sun.star.drawing.ClosedBezierShape"><path fill="none" d="M7643 11069h590v609h-590z" class="BoundingBox"/><path fill="#231f20" d="M7829 11113q79 165 212 304c40 94 139 35 191 98-63 42-115 178-219 159-40-183-200-329-336-454l-34 1c17-69 149-230 186-108"/></g><g class="com.sun.star.drawing.ClosedBezierShape"><path fill="none" d="M7173 11383h729v848h-729z" class="BoundingBox"/><path fill="#231f20" d="M7581 11546c-113 27-209 90-235 210 54 85 112-17 170-21 47-70 116-92 187-106 68 22 164 7 190 98 30 114-42 205-131 259q-86 25-152 106c-10 48-9 73 3 119-17-5-24 9-34 18-48-60-96-119-90-203 79-41 173-122 201-209-26-57-103-35-138-14a275 275 0 0 1-271 108c-60-24-96-90-105-151-24-98 91-157 149-209 143 15 82-276 219-124z"/></g><g class="com.sun.star.drawing.ClosedBezierShape"><path fill="none" d="M12742 11060h804v755h-804z" class="BoundingBox"/><path fill="#231f20" d="m13227 11060-68 2c-84 161-213 394-417 420l262 268c100 60 253 94 360 26 123-70 175-199 181-330-45-155-180-285-318-386m98 511c-37 61-97 69-152 90-66 3-97-85-156-100 23-114 147-204 234-279 49-9 87 48 104 84 41 67 6 147-30 205"/></g><g class="com.sun.star.drawing.ClosedBezierShape"><path fill="none" d="M13214 11613h699v608h-699z" class="BoundingBox"/><path fill="#231f20" d="M13912 11832c-203 57-450 154-522 371l-17 17a760 760 0 0 1-159-253c229 8 409-167 523-354 90 28 117 146 175 219"/></g><g class="com.sun.star.drawing.ClosedBezierShape"><path fill="none" d="M6667 12115h866v790h-866z" class="BoundingBox"/><path fill="#231f20" d="M7310 12356c-92-4-101-105-124-169-74-23-130-93-224-64-177 120-235 344-295 538 217 10 430 71 569 243q88-105 97-241c-81-2-126 27-189-30q14-105 82-190c94-47 140 71 191 99 54-64 82-137 115-208-65-22-136 41-222 22m-321 212c-56-13-173-25-139-116 65-60 110-229 220-125 22 100-24 173-81 241"/></g><g class="com.sun.star.drawing.ClosedBezierShape"><path fill="none" d="M13549 12071h670v687h-670z" class="BoundingBox"/><path fill="#231f20" d="M14126 12169c-131-146-393-121-513 28-61 105-94 264-26 377 76 112 190 199 330 181 113-19 230-97 287-178 25-137 24-306-78-408m-61 360c-73 70-191 89-289 57-73-37-63-111-89-168 27-88 57-168 149-209 98-11 203-4 242 97 22 64 40 168-13 223"/></g><g class="com.sun.star.drawing.ClosedBezierShape"><path fill="none" d="M6424 12860h785v698h-785z" class="BoundingBox"/><path fill="#231f20" d="M6759 12931c-135 74-176 214-198 346 41 49 89 82 156 66 74-57-2-133 13-206 63 16 133 13 188 47 40 80-158 131-12 188 124 23 129-120 167-192 26-75-51-106-56-169 78-16 133 24 190 64-30 162-133 296-144 466-66 54-110-56-172-66-159 18-289-93-446-24-26-28-27-90-3-120l144-464c78-30 116 40 173 64"/></g><g class="com.sun.star.drawing.ClosedBezierShape"><path fill="none" d="M13783 12778h742v816h-742z" class="BoundingBox"/><path fill="#231f20" d="m14394 12778-51 1c-81 180-286 150-440 198-48-10-72-10-120 2l39 205c67 102 97-73 170-56 40 30 63 68 53 119-45 58-100 98-168 106-1 92-1 197 73 239 12-29 48-47 33-86 35-67 100-138 185-125 56 88 183 45 257 28 222-168 6-432-31-631m-126 464c-71-12-64-88-89-135 42-88 183-56 155 48 3 51-23 72-66 87"/></g><g class="com.sun.star.drawing.ClosedBezierShape"><path fill="none" d="M6359 13657h656v807h-656z" class="BoundingBox"/><path fill="#231f20" d="M7007 14072c24 61-29 121-83 121-181 90-395 103-542 269-21-74-44-192 11-257 148 65 261-48 374-111-43-114-185-122-278-182l-119 19c17-90-9-198 46-274 161 190 383 302 591 415"/></g><g class="com.sun.star.drawing.ClosedBezierShape"><path fill="none" d="M13943 13628h694v724h-694z" class="BoundingBox"/><path fill="#231f20" d="M14585 13628c33 80 16 182 23 273a512 512 0 0 0-394-42c-41 11-67 58-101 87-19 91 28 170 107 204 131 0 261 0 358-77l51-1c-55 93 44 182-11 274-72 25-99-68-156-82-170-10-387 57-481-109-69-103-35-249 26-343 121-163 396-46 544-183z"/></g><g class="com.sun.star.drawing.ClosedBezierShape"><path fill="none" d="M13767 14392h840v968h-840z" class="BoundingBox"/><path fill="#231f20" d="M14160 14509c134 48 264 159 413 111 13 47 52 84 20 136-101 76-343 53-302 230 83 123 311 180 178 355-10 21-31 17-50 18l-70-67c-171 9-365-83-513 29-23-6-57 15-69-16 30-78 15-219 116-225 36 117 179 34 258 80 23-30 66-12 84-53-41-86-118-158-176-237 70-65 173-59 236-142q-102-84-225-114c-40 12-68 50-119 37l28-257c86-16 121 95 191 115"/></g><g class="com.sun.star.drawing.ClosedBezierShape"><path fill="none" d="M6388 14584h637v357h-637z" class="BoundingBox"/><path fill="#231f20" d="M7023 14807c-144-144-317 3-479 10-33 41-66 97-100 122-39-76-79-204-41-308 42 4 62 64 104 67 166-39 363 1 494-114 31 63 18 168 22 223"/></g><g class="com.sun.star.drawing.ClosedBezierShape"><path fill="none" d="M8048 11571h4938v5528H8048z" class="BoundingBox"/><path fill="#231f20" d="M12444 13325c88-67 150 45 240 29 25-21 77-30 102-2 17-32 57-13 85-19 48-4 44-58 67-87-549-71-379-700-741-975 23-108 91-197 61-326-39-42-57-139-139-117-30 49-48 90-100 122-130 31-203-83-310-113-223 54-146-204-331-248-77-13-224-51-254 57l122 134c57 129-14 250-60 360-1 117 66 205 143 287 29 47 7 163 106 135 98-44 102-139 165-226 30-2 47 33 70 50-2 124 169 172 109 322-51 167-231 180-334 298-127-14-199 94-306 126-83-22-82-112-122-168 16-12 25-42 50-35 45-16 57-35 49-87-49-69-120-83-190-98-223-192 39-435 19-667-21-286-373-178-569-244-124 148-428-7-474 216 40 26-12 123 71 101-8-24 22-35 33-52 135-29 297 20 379 145-111 45-226-120-342-9 48 57 134 17 173 98 144 67 81 247 76 358-46 155-212 175-318 263-16 47 29 66 36 102-47 133-181 64-272 40-88-72-268-58-262-216-46-2-62-78-120-49-24-28-65-48-71-84-76-52-139-155-91-254 126-156 160 134 309 79-18-147 76-250 146-363 47-139-21-269-60-391 5-92 117-111 116-191-172-81-363 64-371 230-108 94-249 111-390 129-71-20-106-132-191-116-27 48-65 91-48 155-24 108 37 194 125 237a2410 2410 0 0 0-243 587c-122 215-337 288-539 353 38 119 185 114 293 130 69-10 180-67 223 12-226 369-116 884-504 1175l120 14c346-12 403-404 550-627l17 17c-78 462 43 1047-397 1325q164 73 324-8c203-165 280-409 311-656 42-172 31-364 125-516 69 74 13 204 57 289-38 468 158 1040-191 1372 29 11 48 47 86 32 379-108 315-567 356-896 25-155-2-329 75-464 13 69 51 125 39 205l51-2c41-194 108-379 124-583l33-35 53 50c32-30 78-84 82-139 18 66 41 130 39 204-83 123 41 327-93 430-62 150-21 341 44 477 35 188-21 397-176 517-50-39-86-85-71-152q-24-97-123-117c-11 70-35 134-81 190-29 105 77 165 142 236-69 206-450-54-371 247l86-2c158 105 254-126 407-128 85 119-139 204-112 344 90-16 180-33 237-125-41-183 172-268 282-348 139-7 63-157 81-241-65 12-105 77-170 89-29-17-29-48-52-67 49-133 86-286 197-380 159 261 141 601 174 919-18 114-103-1-171 38-81 33-52 137-80 206-66-38-139-58-223-46-35 15-90 52-66 104 146 54 133 224 263 285-11 22-33 17-52 18-67 27-168 101-149 191 109 0 209 76 308 45 39 0 82-11 104 32 17 94 63 191 159 235 106-34 242-101 268-211-26-202 173 28 272-74 62-14 139 80 171-4 11-138-154-169-194-269 87-41 134-172 236-176 9-49-18-83-37-119-96-66-224-13-325 7-52-44 24-81-3-136-19-72-97-73-156-82-112-182-20-410-30-615 54-126 4-323 162-380 207 40 162 280 198 440-78 94-144-59-240-28l20 118c16 47 65 84 121 66 154 60 299 154 315 335 52 68 142 36 191 115 31-24 9-68 14-102-38-89-202-144-142-253a591 591 0 0 0 447 126c-54-208-291-138-399-247 57-62 158-21 203-107 32-114-64-170-57-273-198-15-95 220-216 279-59-4-57-53-104-84-158-357 137-656-74-989 59-162-62-374 22-547 57 25 59 106 106 151 25 6 34-24 50-35l35 33q20 299 116 561c56-70 52-165 97-241l35 34 73 1023 74 204a336 336 0 0 0 312 198l-1-34c-145-108-127-286-164-441 15-382 3-774 43-1146l33-35c126 401 100 884 454 1169 86 4 173 59 257 11v-33c-331-214-356-653-367-1052l34-35c12 31 45 10 68 16q117 123 178 269c78 110 192 205 329 198 51-30 139-9 152-89-509-238-310-881-541-1288m-795-324c4 43-44 35-67 53-20-45 36-56 67-53m-1260-587c42-31 107-8 135-71 9-165-151-239-264-319-19 0-40 5-51-16 170-17 279 228 447 109 46-77-105-127-4-170 102-6 170 54 191 149 3 237-250 594 68 734l17 16c-79 5-101 137-203 91-49-34-80-117-156-83l-66 88c-54-135-191-58-273-12 159-115 182-314 159-516m-309 725c72-86 194-60 289-92 70 31 65 140 156 116l82-139c149 111 394-113 397 180-28 89-63 175-148 242-123-75-118-237-179-355-135 7-87 204-217 227-58-63-98-135-108-219-78 33-53 138-80 206-60 45-77 152-168 141-85-90-67-204-24-307m588 277c-54 100-102 247-217 278-48-88-148-175-92-288 122 191 246-165 309 10m-664 905c115 65 192-52 289-75l35 33c-11 114-107 211-199 278-97-3-94-111-140-168 5-22-16-55 15-68m111-413q2 15-3 23c4 49 82 8 106 43 11 89 1 171-80 224-43 20-57-33-87-49-32-52-13-125-21-188 15-34 69-4 82-30zm-341-694c-12 31-45 12-67 19l-18-17c25-10 63-36 85-2m118 682-1-35 16-52zm8-429c-85 61-39 172-98 242-39-19-55-124-138-82-51 144-25 319-75 464-32-51-15-126-22-188l51-52c-171-23-18-375-210-201-9 119-43 251-26 360l-81 976-17 17c23-496-93-992-68-1521l-35-67a439 439 0 0 0-167 221l1 5-4 4c-67 204-25 458-84 666-96 286-37 634-288 860l-34 1c314-446 190-1063 323-1580-76-73 78-227-73-221-176 318-303 656-491 969-13-73 95-142 114-225 19-325 138-609 254-895-7-30 16-89-36-84-130 23-230 118-374 111l-68 1c109-99 268-150 369-299 187-221 153-527 395-726 15-171-287-3-210-201 181 164 375-31 562-47 46-58 42-136 99-190 39 150 183 387-5 530-50 82-116-9-188 21-69-13-87-100-55-152 16 5 24-8 34-18 30 22 12 67 54 84 42 12 74-17 83-53 27-70-43-111-88-135-90-20-162 33-203 90-31 65-5 168-12 223-79 13-198 36-236 142-1 129-111 215-112 344-21 52-95 104-65 155 140-56 123-229 267-313 0-20-6-41 15-52 75-18 129 91 208 98-3 26 29 38 19 68l-17 18c-33-52-84-54-138-49-75 196-241 357-313 554l18 17c73-158 244-235 299-400 118 65 218-61 324-25-5 29 16 68-15 86-38-17-72-43-121-31-138 85-132 256-248 364l-44 292c17 11 27 40 51 33l30-31 3-9c-4-174 97-307 144-460 84-119 253 33 340-93 21 15 71 3 52 51-31 47-62-15-102 2-213 137-142 414-174 636l35 33c44-93 40-205 96-292 1-75-53-162 12-223 75-15 137 38 205-4-4 97-58 195-10 290 47-41 42-103 64-155 73-58 172-92 219-175 19 0 40-6 51 15-16 29-69 44-49 87 104 72 139 353 312 215 33 46 91 123 21 171-72 109-181 14-223-64-54-59-36-151-107-203m287 1379c-66 54-138 121-221 56-89-30-53-169-40-238 74-52 123 140 224 47l67-54c122 37-5 133-30 189m88 135 35 33c30 164 64 325 79 494l-34-33zm59-411c5-77 41-157 116-191 109-15 105 112 157 168q-38 106-132 190c-97-3-94-111-141-167m154 1534c24 20 24 50 53 67 41 3 70-19 102-36 87 83-124 199 57 255 100 6 154-97 254-91 9 61-28 118-82 138-79-8-162 9-187 90-5 89 74 124 141 151 38 0 81-10 103 32-143 64-254-172-395-60-39 139 126 298-95 327-191-27 25-376-211-286-54 37-117 104-187 55l-18-16c87-41 192-74 236-176-19-36-32-75-70-101-64-28-147-3-191-82 84 80 268-20 294 130-31 14-10 46-16 70 22 30 51 37 87 32 46 46-26 204 106 151 43-74 30-230 166-209 17-35 55-83 14-120-119-36-30-164-107-220-78 11-173-21-221 57-49-5-84-48-121-83l-1-34c81-15 157 146 222 12-39-154 121-231 60-394l16-18-17-16c34-263 42-536 102-789l35 34c-172 326-60 763-129 1130m-26-1930c-66-100-173-204-110-340 105 126 374-137 277 148-26 75-66 190-167 192m190 47c94 29 217 148 308 27 19 97-13 215-97 293-93 13-180-69-208-149-27-46-29-124-3-171m249-296 34-1c22 101-19 179-97 241-53-31-95-52-105-117-30-133 127-49 168-123m90 954c-57 39-135 78-205 40-52-67-125-79-123-169 84-133 239 41 323-92 78 62 3 148 5 221m333-1153q0-62-54-101c-36 5-56 47-83 70-46-80-56-176-120-248l-18 7c-95 107-97 352-288 336-49-37-98-96-54-152 87-118 234 17 287-144q22-27 55-40l12-13 6 6c75-27 166-32 145-146-24-30-69-9-103-15-5-40 40-34 68-35 58 48 123 81 206 64 13 108-82 195-45 291zm38 171c33 90 14 138 22 239-58-42-41-169-22-239m927 202-50 18c-25-103 6-166-7-273 30 80 71 155 57 255m5-531c31-22 38-51 32-86l-34-34c-46 54-73-50-121-49l-33 53c-73 543-44 1105 87 1622-3-12-60-146-90-220-89-436-52-929-268-1311-25-6-34 24-51 36l-41 463-63 1010 10 427c-84-171-66-386-98-579 13-411 25-864-114-1229-22 6-56-14-67 18-8-68-66-135-22-204 89-82 14-337 182-278 17-31 56-13 85-19 43 98-35 191-79 276-38 121 4 295 43 427 52 5 16-54 50-70-59-85 36-173-23-257 42-166 187-313 125-498 12-31 46-13 69-18 19 87-37 188 40 272 115 55 60 214 126 305 6-127 62-318-60-409-7-105 58-246-42-324-45-13-67 24-101 37-32-12-13-46-19-68 56-51 119-87 204-73-55 265 271 318 235 575l35 34c6-92-14-215-58-306-145-91-54-332-148-430l-27-21q-38-23-109-22c-12 18-41 28-34 53-95-28 30-84 14-137 18-24 44-28 68-37-2 69 25 111 61 143q15 9 27 21c74 52 169 86 177 207l52 50 16-17c-37-120-76-254-161-339-86-106-99-335-297-301-38 29-71 82-31 121l17 16-33 35c-201-100-11-479-335-419l-33 34 18 17-17 17-17-16c-55 23-25 79-32 120 21 30 52 38 86 32l67-86 52 50c-27 112-219 57-183 209-84-83-203-224-111-357q61-105 46-240c30 50 9 138 89 152 69-31 164-54 239-23 119 103 300 153 446 76 69 42 14 110-14 154l-84 88c226 165 314 422 376 675 87 125 160 287 315 351-168 12-277-130-416-195-101 166 54 306 80 459 0 255 153 444 153 699l90 220c-217-249-229-587-346-882"/></g><g class="com.sun.star.drawing.ClosedBezierShape"><path fill="none" d="M6500 15025h817v852h-817z" class="BoundingBox"/><path fill="#231f20" d="m7151 15177 2 69c-59 4-119-38-171 4q-139 167-198 363c119 63 197-68 307-75l99-139c67 52 84 157 125 236-216-2-418 65-542 236-99 25-82-90-123-134-24-160 132-270 93-413-80-25-131 51-169 88-75-36-74-135-73-220 182 70 318-64 478-96 56-166 163 3 172 81"/></g><g class="com.sun.star.drawing.ClosedBezierShape"><path fill="none" d="M13772 15598h368v357h-368z" class="BoundingBox"/><path fill="#231f20" d="M14138 15844c-62 61-184 21-220 107-29-5-68 16-86-15 124-121-208-273 28-275 78 17 101-91 188-56q20 131 90 239"/></g><g class="com.sun.star.drawing.ClosedBezierShape"><path fill="none" d="M6845 15891h774v759h-774z" class="BoundingBox"/><path fill="#231f20" d="M7545 15974c74 72 87 192 58 290-89 171-325 181-369 385-86 0-112-116-141-186a677 677 0 0 0 405-266c13-85-57-150-123-185-162-1-309 64-390 213l1 36c-91-18-106-131-141-203 226 1 373-228 613-151z"/></g><g class="com.sun.star.drawing.ClosedBezierShape"><path fill="none" d="M13232 16077h799v753h-799z" class="BoundingBox"/><path fill="#231f20" d="M14029 16290c-13 78-66 171-151 191a469 469 0 0 0-399-281c-43 48-99 91-99 156a534 534 0 0 0 400 299c-33 62-59 142-133 174-19-21-72-22-53-67-137-154-455-280-336-540q94-125 236-143c211-17 328 212 535 211"/></g><g class="com.sun.star.drawing.ClosedBezierShape"><path fill="none" d="M7548 16618h339v360h-339z" class="BoundingBox"/><path fill="#231f20" d="M7885 16667c-42 111 3 205-10 309-95 11-165-94-258-29l-69-32c157-90-127-401 165-261 68 30 123-68 172 13"/></g><g class="com.sun.star.drawing.ClosedBezierShape"><path fill="none" d="M12674 16674h795v797h-795z" class="BoundingBox"/><path fill="#231f20" d="M12926 16690c-62 170 106 282 199 407 64 60 99-43 152-56 94-25-13-209 117-139 41 37 83 74 71 135-182 145-324 275-505 423-90 43-93-65-139-100 71-25 180-63 219-159-122-111-173-330-366-335 30-78 133-128 201-192z"/></g><g class="com.sun.star.drawing.ClosedBezierShape"><path fill="none" d="M7949 16978h786v726h-786z" class="BoundingBox"/><path fill="#231f20" d="M8734 17211c-48 54-118 130-201 141 12-91-65-142-124-202-51-20-75 1-120 20-84 200 325 350 63 529-108 10-211 6-276-97 48-128-289-259-24-307 92 23 93 332 227 182-62-116-173-231-129-373 30-66 97-118 169-123 193-26 249 228 415 230"/></g><g class="com.sun.star.drawing.ClosedBezierShape"><path fill="none" d="M12202 17077h566v650h-566z" class="BoundingBox"/><path fill="#231f20" d="M12439 17077c-22 173 102 324 217 457 32 33 138-7 104 84-79 35-143 108-238 108-53-193-127-406-319-506 32-87 147-120 236-143"/></g><g class="com.sun.star.drawing.ClosedBezierShape"><path fill="none" d="M8592 17275h495v659h-495z" class="BoundingBox"/><path fill="#231f20" d="M9081 17374c21 48-30 37-50 54-106 150-264 302-194 500-103 26-164-56-243-98-14-52 61-39 86-70 71-153 264-302 160-483 99-16 151 89 241 97"/></g><g class="com.sun.star.drawing.ClosedBezierShape"><path fill="none" d="M11390 17307h898v836h-898z" class="BoundingBox"/><path fill="#231f20" d="M12034 17325c-5 187 87 405 252 507 6 101-108 66-151 124-142-6-253-86-380-129-75 54 3 126 4 189 21 23 51 21 70 50-71 42-143 85-238 74 20-215-73-439-201-595 70-30 159-86 254-92 10 80-41 201 91 238 85 42 178 123 275 79-33-132-67-279-195-355 47-55 129-147 219-90"/></g><g class="com.sun.star.drawing.ClosedBezierShape"><path fill="none" d="M9007 17473h731v717h-731z" class="BoundingBox"/><path fill="#231f20" d="M9735 17600c9 60-29 117-83 138-92-38-163-130-276-113-17 35-54 83-14 120 86 107 254 118 279 267 4 92-55 144-133 174-197 27-309-166-500-160-8-49 48-87 84-104 122-20 271 276 326 44-83-140-383-214-248-422 75-111 222-65 323-43 88 15 133 140 242 99"/></g><g class="com.sun.star.drawing.ClosedBezierShape"><path fill="none" d="M9781 17609h778v717h-778z" class="BoundingBox"/><path fill="#231f20" d="M10128 17657c10 62-84 83-48 155 70 83 137 198 244 234 61-77 19-194 29-292-29-28-69-52-54-100 95-17 172 19 258 28-149 133-63 377-56 549l52 50c-254 165-318-190-486-264-61 49-57 144-29 207l17 17c-85 35-184-1-273-11-1-38 73-75 83-123 2-165 55-331 6-495q143-16 257 45"/></g><g class="com.sun.star.drawing.ClosedBezierShape"><path fill="none" d="M10709 17595h646v701h-646z" class="BoundingBox"/><path fill="#231f20" d="M11237 17600c-37 212 1 432 117 597l-50 35-529 63c-64-23-25-90-38-135 43-18 111 13 155 47 81-38 199 6 255-91 2-62-1-138-72-152-58 41-59 105-135 105-43-69-48-177-22-255l51-2c0 30 35 45 53 68 31 10 48-17 67-36 3-56-2-107-54-137-96 42-252-17-288 127l-34 1-4-172c182-8 333-87 528-63"/></g><g class="com.sun.star.drawing.ClosedBezierShape"><path fill="none" d="M7134 10822h6731v6730H7134z" class="BoundingBox"/><path fill="#231f20" d="M10402 17551h-2l-36-1c-38-2-68-34-67-73 2-38 34-68 73-66l34 1a70 70 0 0 1-2 139m208-1c-37 0-68-29-69-67-2-38 28-70 67-72l34-1c38-2 71 28 72 67 2 38-28 70-66 72l-36 1zm-451-15h-7l-35-4c-40-4-67-39-63-77 5-38 40-66 78-61l34 3a70 70 0 0 1-7 139m694-2c-35 0-66-26-69-62-4-38 23-72 61-76l34-4c38-5 73 23 77 61 5 38-22 73-60 77l-36 4zm-936-32-12-1-35-6c-38-7-63-44-55-81 7-38 43-63 81-56l33 6c38 7 63 43 57 81-6 34-36 57-69 57m1176-2a69 69 0 0 1-12-138l34-7c37-7 74 18 81 56 7 37-17 74-55 81l-35 7zm-1414-49-17-2-34-9a69 69 0 0 1-49-85c9-38 48-60 85-50l33 9c37 9 59 47 50 85-8 31-37 52-68 52m1652-4c-31 0-59-21-67-52a69 69 0 0 1 50-85l33-8c37-11 75 11 85 48 10 38-12 76-49 86l-34 9zm-1885-65q-11 0-22-4l-34-11a71 71 0 0 1-43-89c13-36 53-55 89-43l32 11a70 70 0 0 1-22 136m2118-5a69 69 0 0 1-22-135l32-11c36-13 76 6 89 42 12 36-7 76-43 89l-33 11q-11 4-23 4m-2345-81q-13 0-27-6l-33-13a71 71 0 0 1-36-92c15-35 56-51 92-36l31 13a70 70 0 0 1-27 134m2573-6a70 70 0 0 1-28-134l32-13c35-16 76 0 91 35 16 36 0 77-35 92l-33 14q-13 6-27 6m-2793-97q-17 0-32-7l-31-17a70 70 0 0 1-30-94c18-34 60-47 94-29l30 16a69 69 0 0 1-31 131m3013-7a69 69 0 0 1-32-131l30-16a69 69 0 1 1 65 123l-31 16q-15 8-32 8m-3225-111q-19 0-37-10l-30-19a70 70 0 0 1-22-96c20-32 63-42 96-22l29 18c33 20 43 63 23 95a69 69 0 0 1-59 34m3437-9a70 70 0 0 1-37-129l29-18c33-20 76-11 96 22 21 32 11 75-21 96l-31 19q-17 10-36 10m-3640-125q-21 0-41-13l-28-21a70 70 0 0 1-15-98c22-31 66-38 97-15l27 20c32 23 39 66 16 98a68 68 0 0 1-56 29m3842-10q-33 0-56-29a71 71 0 0 1 16-98l27-20c31-23 75-17 97 14 23 32 17 76-14 98q-14 12-29 21-18 14-41 14m-4035-140q-23 0-44-16l-27-23a70 70 0 0 1 90-106l26 22c29 25 33 69 9 98a69 69 0 0 1-54 25m4227-11q-30 0-53-25a69 69 0 0 1 9-98l25-22a70 70 0 1 1 91 106l-27 23a69 69 0 0 1-45 16m-4408-151q-27 0-48-20l-25-24a70 70 0 0 1 97-100l24 24a70 70 0 0 1-48 120m4589-12q-29 0-50-21a71 71 0 0 1 1-99l24-24c28-27 72-27 99 0 27 28 27 72-1 99l-25 25a69 69 0 0 1-48 20m-4758-163q-30 0-51-24l-24-26a70 70 0 0 1 7-98c28-26 72-23 98 6l22 26a70 70 0 0 1-52 116m4925-14q-24 1-46-17a70 70 0 0 1-6-98l23-26a70 70 0 0 1 105 91l-23 27a72 72 0 0 1-53 23m-5080-174q-33 0-55-27l-22-28a69 69 0 0 1 14-97c31-24 74-17 97 13l21 27c23 31 18 74-13 98a65 65 0 0 1-42 14m5235-13q-23 0-42-15a68 68 0 0 1-13-97l20-27c23-31 67-37 97-15 31 23 37 67 15 98l-22 28a70 70 0 0 1-55 28m-5376-185c-23 0-45-11-58-31l-20-30a70 70 0 0 1 117-75l19 28c21 32 12 76-20 97q-18 11-38 11m5516-14q-20 0-38-11a71 71 0 0 1-20-97l18-28c21-33 64-42 96-22 33 21 42 64 21 96l-19 30a67 67 0 0 1-58 32m-5643-194c-24 0-48-13-61-36l-17-31c-18-34-6-76 28-94s76-6 94 28l17 30c19 33 7 75-27 94q-16 9-34 9m5768-15q-17 1-33-8a71 71 0 0 1-28-95l16-29c19-34 61-47 95-29 33 18 46 61 28 94l-17 31a69 69 0 0 1-61 36m-5878-202c-27 0-52-15-64-40l-14-33c-16-35-1-76 34-92 35-15 77 0 92 35l15 31c16 35 1 76-34 93q-15 6-29 6m5987-14q-14 0-29-7a69 69 0 0 1-34-92l14-31a70 70 0 1 1 127 57l-14 32a72 72 0 0 1-64 41m-6082-211c-28 0-54-17-65-45l-12-33a69 69 0 1 1 130-48l12 32c14 36-4 76-40 90q-12 4-25 4m6175-14q-12 0-24-4a71 71 0 0 1-41-90l12-32c13-36 53-54 89-41 36 12 55 52 42 88l-13 34a68 68 0 0 1-65 45m-6252-216c-30 0-58-20-67-50l-10-35a69 69 0 0 1 49-85c36-11 75 11 85 48l10 32a71 71 0 0 1-67 90m6328-15-19-3a68 68 0 0 1-47-86l9-32a69 69 0 1 1 134 37l-10 34c-9 30-36 50-67 50m-6388-221c-32 0-61-23-68-55l-7-35a70 70 0 0 1 136-28l7 34c8 37-16 74-53 82zm6447-15-14-1c-38-8-62-45-54-83l7-33c7-38 44-62 82-55 37 8 62 44 54 82l-7 35c-7 33-36 55-68 55m-6489-225c-34 0-64-25-69-60l-5-35c-4-38 23-73 61-78s73 22 77 60l5 34c5 38-21 73-59 78zm6530-15h-9c-38-5-65-40-60-78l5-34c4-38 39-65 77-61 38 5 65 40 61 78l-5 35c-5 35-34 60-69 60m-6554-227c-37 0-67-28-70-65l-2-35c-2-39 28-72 66-74s71 28 73 66l2 34c3 38-27 71-65 74zm6578-15h-5c-38-2-67-35-65-74l2-34c2-38 34-67 73-66 38 2 68 35 66 73l-2 36c-2 37-33 65-69 65m-6585-228h-1c-38 0-69-32-68-70v-36c1-38 33-69 71-68s69 33 68 71v34c-1 38-32 69-70 69m6590-15c-38 0-69-31-70-69v-34c-1-38 29-70 68-71h1c38 0 69 30 70 68l1 35c0 39-31 70-69 71zm-6579-228h-6c-38-3-66-37-63-75l3-36c3-38 37-66 76-63 38 4 66 38 62 76l-3 34c-3 36-33 64-69 64m6567-15c-36 0-66-27-69-64l-4-33a70 70 0 0 1 139-14l3 35c3 39-25 72-63 76zm-6538-227h-11c-38-6-64-42-58-80l6-35a69 69 0 1 1 137 23l-5 34c-6 34-35 58-69 58m6508-14c-34 0-63-25-69-59l-5-33c-7-38 18-74 56-81 38-6 74 19 81 57l6 35c6 38-20 73-58 80zm-6461-224-16-2c-38-9-61-46-52-84l8-34c9-38 47-60 84-51 38 9 60 47 51 84l-8 33c-7 32-36 54-67 54m6413-15c-31 0-60-21-67-53l-9-33c-9-38 14-75 51-85 37-9 75 14 84 51l9 34a69 69 0 0 1-68 86m-6349-220-21-3a69 69 0 0 1-45-87l10-34c12-37 51-57 88-45s56 51 45 88l-11 32c-9 30-37 49-66 49m6284-14c-30 0-57-19-66-49l-11-32c-12-37 8-76 44-88 37-12 76 8 88 44l11 34c12 37-8 76-45 87q-10 4-21 4m-6203-215q-12 0-25-5a69 69 0 0 1-39-90l13-33a70 70 0 0 1 129 52l-13 32a70 70 0 0 1-65 44m6120-15c-27 0-53-16-64-43l-13-32c-15-35 2-76 37-91 36-14 76 2 91 38l14 33c14 35-3 76-39 90q-12 6-26 5m-6022-207q-15 0-30-8a69 69 0 0 1-32-92l16-32c17-35 59-49 93-31 34 17 48 59 31 93l-15 30a70 70 0 0 1-63 40m5923-15c-26 0-51-14-63-39l-15-30a70 70 0 1 1 124-63l16 32a69 69 0 0 1-62 100m-5808-200q-18 0-35-9a69 69 0 0 1-25-95l18-31c19-33 62-44 95-24s44 62 24 95l-17 30a69 69 0 0 1-60 34m5692-14c-24 0-47-13-60-35l-18-29c-19-33-9-76 24-95 33-20 76-10 96 23l18 31a70 70 0 0 1-60 105m-5562-191q-21 0-40-12a71 71 0 0 1-18-97l21-29c22-32 65-39 96-17 32 22 39 65 17 97l-19 27a68 68 0 0 1-57 31m5431-15c-22 0-44-10-58-29l-19-28a70 70 0 0 1 16-97c32-23 75-15 97 16l21 29a69 69 0 0 1-57 109m-5287-181q-23 0-43-15a70 70 0 0 1-11-98l22-27a70 70 0 0 1 108 88l-21 26a71 71 0 0 1-55 26m5141-13c-20 0-41-9-54-26l-22-27a71 71 0 0 1 9-98c30-24 74-20 98 10l23 27c24 30 19 74-11 98a64 64 0 0 1-43 16m-4982-171q-26 0-47-19a69 69 0 0 1-4-98l24-26c27-28 71-29 99-2 28 26 29 70 2 98l-23 25a68 68 0 0 1-51 22m4822-13q-29 0-51-22l-23-25a69 69 0 0 1 2-98c28-27 72-26 98 2l25 26a69 69 0 0 1-51 117m-4650-159q-29 0-51-22a71 71 0 0 1 4-99l26-24c28-26 72-24 98 5 26 28 24 72-5 98l-25 23a66 66 0 0 1-47 19m4477-12q-26 0-47-19l-25-23a70 70 0 0 1 93-103l26 24c29 26 30 70 4 98a68 68 0 0 1-51 23m-4293-147q-31 0-54-26a70 70 0 0 1 11-98l27-22c31-24 74-19 98 11 24 31 18 74-12 98l-26 21a68 68 0 0 1-44 16m4108-11q-23 0-43-15l-27-21a71 71 0 0 1-12-98c24-30 67-36 98-12l28 22c30 24 35 67 11 97a69 69 0 0 1-55 27m-3913-135q-34 0-57-30a68 68 0 0 1 18-96l29-20c32-22 75-13 97 18 21 32 13 76-19 97l-28 19q-18 12-40 12m3717-9q-20 0-39-12l-28-19a70 70 0 0 1-19-97c21-32 64-40 96-19l30 20c31 21 40 64 18 96a69 69 0 0 1-58 31m-3511-121a70 70 0 0 1-35-130l31-18c33-19 76-7 95 26 19 34 7 76-26 95l-30 17q-17 10-35 10m3306-9q-18 0-35-9l-30-17a69 69 0 0 1-26-94c19-34 61-46 95-27l30 18a69 69 0 0 1-34 129m-3091-106c-26 0-51-14-63-39-17-35-2-76 32-93l32-16c35-16 76-1 93 33 16 35 2 76-33 93l-31 15q-15 7-30 7m2876-7q-16 0-30-7l-31-15a68 68 0 0 1-33-92c16-35 57-50 92-34l32 16c35 16 49 58 33 92a70 70 0 0 1-63 40m-2654-92a69 69 0 0 1-25-134l33-13a70 70 0 0 1 50 130l-32 12q-12 5-26 5m2431-6q-12 0-25-4l-32-13a69 69 0 0 1-40-90c14-35 54-53 90-40l33 13a69 69 0 0 1-26 134m-2201-76c-30 0-57-19-66-49-12-36 8-75 45-87l34-10c37-12 76 9 87 46s-10 76-46 87l-33 10zm1972-4q-10 0-21-4l-32-9a70 70 0 0 1 40-134l34 11c36 11 57 50 45 87-9 29-36 49-66 49m-1737-60c-32 0-60-22-68-54-9-37 14-75 52-84l34-8c38-8 75 15 83 53 9 37-15 75-52 83l-33 8zm1502-4q-7 1-16-2l-33-7c-37-8-61-45-53-83 8-37 46-61 83-53l35 8c37 8 60 46 52 83-8 32-36 54-68 54m-1264-43a70 70 0 0 1-11-139l36-5c38-6 73 21 79 59 5 38-21 73-59 79l-34 5zm1025-3-10-1-34-4c-38-6-64-41-59-79s41-65 79-59l35 5c38 6 64 41 58 79-5 35-35 59-69 59m-782-27c-36 0-66-27-69-63-4-39 25-72 63-75l35-3a70 70 0 1 1 11 139l-34 2zm541-1h-6l-34-2c-38-3-67-36-64-75 2-38 35-67 74-64l35 2c38 3 67 37 64 75-3 37-33 64-69 64m-298-10c-38 0-69-31-70-69 0-38 31-70 69-70h56a69 69 0 1 1-1 139z"/></g><g class="com.sun.star.drawing.ClosedBezierShape"><path fill="none" d="M6096 9750h8807v8807H6096z" class="BoundingBox"/><path fill="#231f20" d="M10499 18556a4385 4385 0 0 1-3113-1290 4410 4410 0 0 1-944-1399 4385 4385 0 0 1-346-1714 4389 4389 0 0 1 1941-3651 4363 4363 0 0 1 2462-752 4366 4366 0 0 1 2461 752 4410 4410 0 0 1 1596 1937 4389 4389 0 0 1 346 1714 4385 4385 0 0 1-1942 3651 4384 4384 0 0 1-2461 752m0-8702a4304 4304 0 0 0-4299 4299 4304 4304 0 0 0 4299 4298 4304 4304 0 0 0 4299-4298 4304 4304 0 0 0-4299-4299"/></g></g></g></g></svg>